<svg width="131" height="69" viewBox="0 0 131 69" fill="none" xmlns="http://www.w3.org/2000/svg">
<path d="M5.072 68C3.81067 68 2.75 67.57 1.89 66.71C1.03 65.85 0.6 64.7893 0.6 63.528V5.306C0.6 3.98733 1.03 2.92666 1.89 2.124C2.75 1.264 3.81067 0.833998 5.072 0.833998C6.792 0.833998 8.11067 1.63667 9.028 3.242L35.946 57.164H33.194L59.424 3.242C60.3413 1.63667 61.66 0.833998 63.38 0.833998C64.6413 0.833998 65.702 1.264 66.562 2.124C67.422 2.92666 67.852 3.98733 67.852 5.306V63.528C67.852 64.7893 67.3933 65.85 66.476 66.71C65.616 67.57 64.584 68 63.38 68C62.1187 68 61.058 67.57 60.198 66.71C59.338 65.85 58.908 64.7893 58.908 63.528V17.69L60.628 17.26L38.096 63.184C37.1213 64.6747 35.8313 65.42 34.226 65.42C32.334 65.42 30.958 64.5313 30.098 62.754L7.824 18.12L9.544 17.69V63.528C9.544 64.7893 9.114 65.85 8.254 66.71C7.394 67.57 6.33333 68 5.072 68ZM106.416 68.86C102.747 68.86 99.2496 68.2867 95.9243 67.14C92.5989 65.9933 89.7036 64.388 87.2383 62.324C84.7729 60.26 82.9669 57.8807 81.8203 55.186C81.2469 53.982 81.2469 52.864 81.8203 51.832C82.4509 50.8 83.4829 50.1407 84.9163 49.854C85.9483 49.6247 86.9516 49.7967 87.9263 50.37C88.9583 50.886 89.7323 51.6887 90.2483 52.778C90.9363 54.2113 92.0543 55.53 93.6023 56.734C95.2076 57.938 97.1283 58.9127 99.3643 59.658C101.6 60.4033 103.951 60.776 106.416 60.776C109.168 60.776 111.691 60.346 113.984 59.486C116.335 58.626 118.227 57.3933 119.66 55.788C121.094 54.1253 121.81 52.09 121.81 49.682C121.81 46.6433 120.606 43.92 118.198 41.512C115.848 39.104 111.949 37.6133 106.502 37.04C99.3929 36.352 93.8029 34.2593 89.7323 30.762C85.6616 27.2647 83.6263 22.936 83.6263 17.776C83.6263 13.992 84.6869 10.7813 86.8083 8.144C88.9296 5.50666 91.7963 3.5 95.4083 2.124C99.0776 0.747998 103.148 0.0599982 107.62 0.0599982C111.118 0.0599982 114.156 0.54733 116.736 1.52199C119.374 2.49666 121.667 3.844 123.616 5.564C125.566 7.284 127.257 9.31933 128.69 11.67C129.493 12.9313 129.808 14.1353 129.636 15.282C129.522 16.3713 128.977 17.2313 128.002 17.862C126.913 18.55 125.738 18.6933 124.476 18.292C123.215 17.8907 122.269 17.1453 121.638 16.056C120.721 14.3933 119.603 12.9887 118.284 11.842C116.966 10.6953 115.418 9.80666 113.64 9.176C111.863 8.488 109.77 8.144 107.362 8.144C103.12 8.08666 99.5649 8.88933 96.6983 10.552C93.8316 12.1573 92.3983 14.6513 92.3983 18.034C92.3983 19.754 92.8283 21.4167 93.6883 23.022C94.6056 24.57 96.2396 25.9173 98.5903 27.064C100.998 28.2107 104.438 29.0133 108.91 29.472C115.733 30.16 121.036 32.2527 124.82 35.75C128.662 39.19 130.582 43.748 130.582 49.424C130.582 52.692 129.894 55.53 128.518 57.938C127.2 60.346 125.394 62.3813 123.1 64.044C120.864 65.6493 118.284 66.8533 115.36 67.656C112.494 68.4587 109.512 68.86 106.416 68.86Z" fill="white"/>
</svg>
