<svg width="388" height="126" viewBox="0 0 388 126" fill="none" xmlns="http://www.w3.org/2000/svg">
<g filter="url(#filter0_d_1_7)">
<rect x="5.25" y="1.25" width="377.5" height="115.5" rx="1.75" stroke="white" stroke-width="2.5" shape-rendering="crispEdges"/>
</g>
<rect x="16" y="13" width="143" height="93" rx="3" fill="white"/>
<path d="M184.534 71.1719C184.534 70.541 184.435 69.9844 184.237 69.502C184.052 69.0072 183.718 68.5618 183.235 68.166C182.765 67.7702 182.11 67.3929 181.269 67.0342C180.44 66.6755 179.388 66.3105 178.114 65.9395C176.778 65.5436 175.572 65.1045 174.496 64.6221C173.42 64.1273 172.498 63.5645 171.731 62.9336C170.965 62.3027 170.377 61.5791 169.969 60.7627C169.561 59.9463 169.356 59.0124 169.356 57.9609C169.356 56.9095 169.573 55.9385 170.006 55.0479C170.439 54.1572 171.057 53.3841 171.861 52.7285C172.678 52.0605 173.649 51.541 174.774 51.1699C175.9 50.7988 177.156 50.6133 178.541 50.6133C180.57 50.6133 182.289 51.0029 183.699 51.7822C185.122 52.5492 186.204 53.5573 186.946 54.8066C187.688 56.0436 188.06 57.3672 188.06 58.7773H184.497C184.497 57.763 184.281 56.8662 183.848 56.0869C183.415 55.2952 182.759 54.6768 181.881 54.2314C181.003 53.7738 179.889 53.5449 178.541 53.5449C177.267 53.5449 176.215 53.7367 175.387 54.1201C174.558 54.5036 173.939 55.0231 173.531 55.6787C173.135 56.3343 172.938 57.0827 172.938 57.9238C172.938 58.4928 173.055 59.0124 173.29 59.4824C173.537 59.9401 173.915 60.3669 174.422 60.7627C174.941 61.1585 175.597 61.5234 176.389 61.8574C177.193 62.1914 178.151 62.513 179.265 62.8223C180.799 63.2552 182.122 63.7376 183.235 64.2695C184.349 64.8014 185.264 65.4014 185.981 66.0693C186.711 66.7249 187.249 67.4733 187.596 68.3145C187.954 69.1432 188.134 70.0833 188.134 71.1348C188.134 72.2357 187.911 73.2314 187.466 74.1221C187.021 75.0127 186.383 75.7734 185.555 76.4043C184.726 77.0352 183.73 77.5238 182.567 77.8701C181.417 78.2041 180.131 78.3711 178.708 78.3711C177.459 78.3711 176.228 78.1979 175.016 77.8516C173.816 77.5052 172.721 76.9857 171.731 76.293C170.754 75.6003 169.969 74.7467 169.375 73.7324C168.794 72.7057 168.503 71.5182 168.503 70.1699H172.065C172.065 71.0977 172.245 71.8955 172.604 72.5635C172.962 73.2191 173.451 73.7633 174.069 74.1963C174.7 74.6292 175.411 74.9508 176.203 75.1611C177.007 75.359 177.842 75.458 178.708 75.458C179.957 75.458 181.015 75.2848 181.881 74.9385C182.747 74.5921 183.402 74.0973 183.848 73.4541C184.305 72.8109 184.534 72.0501 184.534 71.1719ZM202.699 53.3779L193.756 78H190.101L200.398 50.9844H202.755L202.699 53.3779ZM210.195 78L201.233 53.3779L201.178 50.9844H203.534L213.869 78H210.195ZM209.731 67.999V70.9307H194.554V67.999H209.731ZM232.609 50.9844H236.172V69.2607C236.172 71.2894 235.72 72.9779 234.817 74.3262C233.914 75.6745 232.715 76.6888 231.218 77.3691C229.733 78.0371 228.119 78.3711 226.375 78.3711C224.544 78.3711 222.887 78.0371 221.402 77.3691C219.93 76.6888 218.761 75.6745 217.896 74.3262C217.042 72.9779 216.615 71.2894 216.615 69.2607V50.9844H220.159V69.2607C220.159 70.6709 220.419 71.8337 220.938 72.749C221.458 73.6644 222.182 74.3447 223.109 74.79C224.049 75.2354 225.138 75.458 226.375 75.458C227.624 75.458 228.713 75.2354 229.641 74.79C230.581 74.3447 231.311 73.6644 231.83 72.749C232.35 71.8337 232.609 70.6709 232.609 69.2607V50.9844ZM262.575 50.9844V78H258.976L245.375 57.1631V78H241.794V50.9844H245.375L259.031 71.877V50.9844H262.575ZM276.231 78H270.591L270.628 75.0869H276.231C278.161 75.0869 279.769 74.6849 281.056 73.8809C282.342 73.0645 283.307 71.9264 283.95 70.4668C284.606 68.9948 284.934 67.2754 284.934 65.3086V63.6572C284.934 62.111 284.748 60.738 284.377 59.5381C284.006 58.3258 283.462 57.3053 282.744 56.4766C282.027 55.6354 281.148 54.9984 280.109 54.5654C279.083 54.1325 277.901 53.916 276.565 53.916H270.479V50.9844H276.565C278.334 50.9844 279.949 51.2812 281.408 51.875C282.868 52.4564 284.123 53.3037 285.175 54.417C286.239 55.5179 287.055 56.8538 287.624 58.4248C288.193 59.9834 288.478 61.7399 288.478 63.6943V65.3086C288.478 67.263 288.193 69.0257 287.624 70.5967C287.055 72.1553 286.232 73.485 285.156 74.5859C284.092 75.6868 282.806 76.5342 281.297 77.1279C279.8 77.7093 278.112 78 276.231 78ZM272.502 50.9844V78H268.921V50.9844H272.502ZM311.021 75.0869V78H296.716V75.0869H311.021ZM297.439 50.9844V78H293.858V50.9844H297.439ZM309.129 62.5996V65.5127H296.716V62.5996H309.129ZM310.836 50.9844V53.916H296.716V50.9844H310.836ZM315.456 50.9844H324.399C326.428 50.9844 328.141 51.2936 329.539 51.9121C330.949 52.5306 332.019 53.446 332.749 54.6582C333.491 55.8581 333.862 57.3363 333.862 59.0928C333.862 60.3298 333.609 61.4616 333.102 62.4883C332.607 63.5026 331.889 64.3685 330.949 65.0859C330.021 65.791 328.908 66.3167 327.609 66.6631L326.607 67.0527H318.202L318.165 64.1396H324.511C325.797 64.1396 326.867 63.917 327.721 63.4717C328.574 63.014 329.217 62.4017 329.65 61.6348C330.083 60.8678 330.3 60.0205 330.3 59.0928C330.3 58.0537 330.096 57.1445 329.688 56.3652C329.279 55.5859 328.636 54.986 327.758 54.5654C326.892 54.1325 325.772 53.916 324.399 53.916H319.037V78H315.456V50.9844ZM331.246 78L324.678 65.7539L328.407 65.7354L335.068 77.7773V78H331.246ZM353.271 71.1719C353.271 70.541 353.172 69.9844 352.974 69.502C352.788 69.0072 352.454 68.5618 351.972 68.166C351.502 67.7702 350.846 67.3929 350.005 67.0342C349.176 66.6755 348.125 66.3105 346.851 65.9395C345.515 65.5436 344.309 65.1045 343.232 64.6221C342.156 64.1273 341.235 63.5645 340.468 62.9336C339.701 62.3027 339.113 61.5791 338.705 60.7627C338.297 59.9463 338.093 59.0124 338.093 57.9609C338.093 56.9095 338.309 55.9385 338.742 55.0479C339.175 54.1572 339.794 53.3841 340.598 52.7285C341.414 52.0605 342.385 51.541 343.511 51.1699C344.636 50.7988 345.892 50.6133 347.277 50.6133C349.306 50.6133 351.025 51.0029 352.436 51.7822C353.858 52.5492 354.94 53.5573 355.683 54.8066C356.425 56.0436 356.796 57.3672 356.796 58.7773H353.233C353.233 57.763 353.017 56.8662 352.584 56.0869C352.151 55.2952 351.495 54.6768 350.617 54.2314C349.739 53.7738 348.626 53.5449 347.277 53.5449C346.003 53.5449 344.952 53.7367 344.123 54.1201C343.294 54.5036 342.676 55.0231 342.268 55.6787C341.872 56.3343 341.674 57.0827 341.674 57.9238C341.674 58.4928 341.791 59.0124 342.026 59.4824C342.274 59.9401 342.651 60.3669 343.158 60.7627C343.678 61.1585 344.333 61.5234 345.125 61.8574C345.929 62.1914 346.888 62.513 348.001 62.8223C349.535 63.2552 350.858 63.7376 351.972 64.2695C353.085 64.8014 354 65.4014 354.718 66.0693C355.448 66.7249 355.986 67.4733 356.332 68.3145C356.691 69.1432 356.87 70.0833 356.87 71.1348C356.87 72.2357 356.647 73.2314 356.202 74.1221C355.757 75.0127 355.12 75.7734 354.291 76.4043C353.462 77.0352 352.466 77.5238 351.304 77.8701C350.153 78.2041 348.867 78.3711 347.444 78.3711C346.195 78.3711 344.964 78.1979 343.752 77.8516C342.552 77.5052 341.457 76.9857 340.468 76.293C339.491 75.6003 338.705 74.7467 338.111 73.7324C337.53 72.7057 337.239 71.5182 337.239 70.1699H340.802C340.802 71.0977 340.981 71.8955 341.34 72.5635C341.699 73.2191 342.187 73.7633 342.806 74.1963C343.437 74.6292 344.148 74.9508 344.939 75.1611C345.743 75.359 346.578 75.458 347.444 75.458C348.694 75.458 349.751 75.2848 350.617 74.9385C351.483 74.5921 352.139 74.0973 352.584 73.4541C353.042 72.8109 353.271 72.0501 353.271 71.1719Z" fill="white"/>
<path d="M28.3906 43.875H32.7734L43.9531 71.6953L55.1094 43.875H59.5156L45.6406 78H42.2188L28.3906 43.875ZM26.9609 43.875H30.8281L31.4609 64.6875V78H26.9609V43.875ZM57.0547 43.875H60.9219V78H56.4219V64.6875L57.0547 43.875ZM81.9219 46.8984L70.625 78H66.0078L79.0156 43.875H81.9922L81.9219 46.8984ZM91.3906 78L80.0703 46.8984L80 43.875H82.9766L96.0312 78H91.3906ZM90.8047 65.3672V69.0703H71.6328V65.3672H90.8047ZM110.164 43.875V78H105.711V43.875H110.164ZM121.133 43.875V47.5781H94.7656V43.875H121.133ZM139.18 43.875V78H134.727V43.875H139.18ZM150.148 43.875V47.5781H123.781V43.875H150.148Z" fill="black"/>
<defs>
<filter id="filter0_d_1_7" x="0" y="0" width="388" height="126" filterUnits="userSpaceOnUse" color-interpolation-filters="sRGB">
<feFlood flood-opacity="0" result="BackgroundImageFix"/>
<feColorMatrix in="SourceAlpha" type="matrix" values="0 0 0 0 0 0 0 0 0 0 0 0 0 0 0 0 0 0 127 0" result="hardAlpha"/>
<feOffset dy="4"/>
<feGaussianBlur stdDeviation="2"/>
<feComposite in2="hardAlpha" operator="out"/>
<feColorMatrix type="matrix" values="0 0 0 0 0 0 0 0 0 0 0 0 0 0 0 0 0 0 0.25 0"/>
<feBlend mode="normal" in2="BackgroundImageFix" result="effect1_dropShadow_1_7"/>
<feBlend mode="normal" in="SourceGraphic" in2="effect1_dropShadow_1_7" result="shape"/>
</filter>
</defs>
</svg>
