<svg width="139" height="144" viewBox="0 0 139 144" fill="none" xmlns="http://www.w3.org/2000/svg">
<rect x="-0.5" width="4.6875" height="143.818" fill="white"/>
<rect x="134.438" width="4.6875" height="143.818" fill="white"/>
<rect x="141" width="4.79393" height="140.625" transform="rotate(90 141 0)" fill="white"/>
<rect width="4.7417" height="203.632" transform="matrix(0.694477 0.719515 -0.703745 0.710452 134.305 1.91757)" fill="white"/>
<rect x="139.125" y="140.024" width="4.79393" height="140.625" transform="rotate(90 139.125 140.024)" fill="white"/>
<path d="M47.3416 86.3055C46.5509 87.0912 45.6243 87.4764 44.5617 87.4611C43.4991 87.4458 42.584 87.0341 41.8162 86.2259L6.37795 48.924C5.57531 48.0791 5.19926 47.1317 5.24981 46.0818C5.26545 44.9951 5.66862 44.0589 6.4593 43.2732C7.53751 42.2018 8.8527 41.8947 10.4049 42.3518L60.0998 60.1317L58.3747 61.8459L41.9964 10.9602C41.5943 9.36033 41.9324 8.02468 43.0106 6.9533C43.8013 6.16761 44.7279 5.78242 45.7905 5.79772C46.8182 5.77628 47.7333 6.18799 48.536 7.03284L83.9742 44.3348C84.742 45.1429 85.1001 46.1082 85.0485 47.2306C85.0328 48.3173 84.6476 49.2356 83.8929 49.9856C83.1022 50.7712 82.1756 51.1564 81.113 51.1411C80.0504 51.1258 79.1353 50.7141 78.3675 49.906L50.4671 20.5383L51.2836 19.1914L65.1118 62.6494C65.4082 64.2115 65.0532 65.4926 64.0468 66.4925C62.8608 67.6711 61.4573 67.9588 59.8364 67.3558L18.706 52.6339L19.5225 51.287L47.4229 80.6547C48.1907 81.4629 48.5667 82.4103 48.5511 83.4969C48.5354 84.5836 48.1323 85.5198 47.3416 86.3055Z" fill="white"/>
<path d="M67.8804 116.944C65.4119 114.346 63.4563 111.475 62.0137 108.33C60.571 105.186 59.7355 102.031 59.507 98.864C59.2785 95.6972 59.7121 92.7803 60.8077 90.1131C61.2562 88.8782 62.0308 88.1085 63.1315 87.804C64.2708 87.5401 65.4219 87.8169 66.5848 88.6346C67.4379 89.2075 67.9938 90.0364 68.2522 91.1213C68.589 92.2073 68.5536 93.308 68.1459 94.4234C67.6157 95.8974 67.4542 97.5969 67.6614 99.522C67.9072 101.488 68.524 103.519 69.5118 105.615C70.4997 107.712 71.8229 109.633 73.4814 111.379C75.3328 113.327 77.3279 114.818 79.4665 115.85C81.6438 116.922 83.7707 117.413 85.8472 117.323C87.9635 117.193 89.8558 116.3 91.5242 114.642C93.6295 112.55 94.7064 109.822 94.7548 106.459C94.8418 103.137 93.2518 99.3499 89.9849 95.0982C85.6788 89.5903 83.3681 84.1911 83.0527 78.9008C82.7373 73.6104 84.3672 69.189 87.9423 65.6365C90.5641 63.0314 93.5022 61.5721 96.7566 61.2585C100.011 60.945 103.33 61.5934 106.713 63.2039C110.135 64.8549 113.35 67.2638 116.359 70.4305C118.712 72.9071 120.418 75.3944 121.479 77.8923C122.577 80.4309 123.187 82.9825 123.306 85.547C123.426 88.1116 123.154 90.7105 122.489 93.3438C122.155 94.7806 121.533 95.8328 120.623 96.5005C119.791 97.1692 118.829 97.3756 117.736 97.1196C116.527 96.8219 115.637 96.0883 115.066 94.9188C114.496 93.7493 114.376 92.5663 114.706 91.3697C115.241 89.5755 115.462 87.8167 115.37 86.0935C115.277 84.3703 114.851 82.6623 114.093 80.9695C113.374 79.2372 112.204 77.5185 110.584 75.8134C107.77 72.7696 104.822 70.805 101.742 69.9197C98.7008 68.995 96.0086 69.697 93.6649 72.0259C92.4732 73.21 91.6105 74.6592 91.0768 76.3734C90.6213 78.0887 90.7871 80.1734 91.574 82.6274C92.3995 85.122 94.1576 88.1106 96.8484 91.5931C100.962 96.8981 103.079 102.094 103.202 107.182C103.403 112.27 101.537 116.768 97.6042 120.676C95.34 122.926 92.9108 124.392 90.3167 125.076C87.7612 125.8 85.1361 125.922 82.4412 125.443C79.8247 124.965 77.2549 123.967 74.7316 122.449C72.247 120.971 69.9632 119.137 67.8804 116.944Z" fill="white"/>
</svg>
